<?xml version="1.0" encoding="utf-8"?>
<!-- Generator: Adobe Illustrator 26.4.1, SVG Export Plug-In . SVG Version: 6.00 Build 0)  -->
<svg version="1.1" id="TEXTS" xmlns="http://www.w3.org/2000/svg" xmlns:xlink="http://www.w3.org/1999/xlink" x="0px" y="0px"
	 viewBox="0 0 401.8 276.9" style="enable-background:new 0 0 401.8 276.9;" xml:space="preserve">
<style type="text/css">
	.st0{fill:#FF9700;}
	.st1{fill:#1B1D1E;}
	.st2{fill:#2C2E30;}
	.st3{font-family:'Phosphate-Inline';}
	.st4{font-size:62px;}
	.st5{letter-spacing:5;}
	.st6{letter-spacing:2;}
	.st7{letter-spacing:3;}
</style>
<path class="st0" d="M131.8,44.9c5.2-0.4,9.2-0.6,11.8-0.6c1,0,1.9,0,2.5,0.1c4.1,0.4,9.4,3.4,13.9,6.5c-0.1-1.6,0-2.3,0.2-2.8
	c1.1-3.2,5.1-4.6,13.9-4.9c0.7,0,1.4,0,2,0c5.1,0,13.7,0.9,16.1,3.2c2.2,2.2,1.4,6.4,0.9,8.2c1.5-0.1,3.1-0.1,5-0.2l0,0h5.8l0,0
	c1.8,0,3.5,0.1,5,0.2c-0.5-1.8-1.2-6.1,0.9-8.2c2.4-2.4,10.9-3.2,16.1-3.2c0.7,0,1.3,0,2,0c8.8,0.3,12.9,1.7,13.9,4.9
	c0.2,0.5,0.3,1.2,0.2,2.8c4.5-3.1,9.8-6.1,13.9-6.5c0.6-0.1,1.5-0.1,2.5-0.1c2.6,0,6.5,0.2,11.8,0.6c1.6-2.2,2.7-2.8,3.5-3v-0.1
	C253.2,27,228.1,18.3,201,18.3s-52.1,8.6-72.5,23.3c0,0.1,0.1,0.2,0.1,0.3C129.1,42.1,130.1,42.7,131.8,44.9L131.8,44.9z
	 M301.2,69.2c-2.5,3.3-5.2,3.6-6,3.6c-0.1,0-0.3,0-0.4,0c-1.5-0.1-14.8-1.5-17.2-4.1c-0.8-0.9-1.3-2.1-1.5-3.9
	c-2.3-0.3-5.5-0.9-6.7-1.8c-0.6-0.5-1-1-1.4-1.6c-4.3-0.3-7.6-0.5-9.7-0.5c-0.9,0-1.4,0-1.7,0.1c-3.2,0.3-9.6,4.5-15,8.8l0.1,3.6
	c0.1,1.2-0.5,2.4-1.4,3.2c-0.1,0.1-0.2,0.2-0.5,0.4c8.5,7.6,9.7,14.7,9.8,17.6c2.9,3.8,5.4,9.1,7.4,15.7c2.7-1.5,5.5-1.7,6.6-1.7
	c0.4,0,0.8,0,0.9,0c0.6,0.1,1.2,0.1,9.4,4l0.1,0.1c0.4,0.2,0.9,0.4,1.3,0.6l1.1,0.5v0.1c4.4,2.8,7.2,7.9,7.2,13.3
	c0,8.6-6.8,15.7-15,15.7c-0.9,0-1.8-0.1-2.6-0.2l-0.2,0.5l-3.1-1.5c-0.1-0.1-0.5-0.2-0.5-0.2c-0.6-0.3-1.2-0.6-1.8-0.9
	c-0.6,5-1.8,9.8-3.6,14.5c1.7,1.1,3.3,2.9,4.3,5.7c0.1,0.4,0.3,0.9,0.6,2.5c5.2,0.4,9.5,3.4,11.2,7.8c1.4,3.6,3.1,16.3,3.9,22.9
	c8.6,0.1,14.7,0.2,17.5,0.3c4.2,0.1,11.6,0.4,19.7,0.6c7.3-15.8,11.3-33.4,11.3-51.9C325.2,115.2,316.3,89.8,301.2,69.2z
	 M129.1,170.9c1.7-4.4,6-7.4,11.2-7.8c0.3-1.6,0.4-2.1,0.6-2.5c0.9-2.8,2.6-4.6,4.3-5.7c-1.8-4.6-3-9.5-3.6-14.5
	c-0.6,0.3-1.2,0.6-1.8,0.9c0,0-0.3,0.1-0.4,0.2l-3,1.5l-0.2-0.5c-0.9,0.2-1.8,0.2-2.6,0.2c-8.3,0-15.1-7-15.1-15.7
	c0-5.5,2.8-10.5,7.2-13.3v-0.1l0.9-0.4c0.4-0.2,0.9-0.5,1.4-0.7l0.1-0.1c8.1-3.9,8.8-3.9,9.4-4c0.2,0,0.5,0,0.9,0
	c1.1,0,3.9,0.2,6.6,1.7c2-6.7,4.5-11.9,7.4-15.7c0.1-3,1.3-10.1,9.8-17.6c-0.2-0.2-0.4-0.3-0.5-0.4c-0.9-0.8-1.4-2-1.4-3.2l0.1-3.6
	c-5.4-4.3-11.8-8.5-15-8.8c-0.3,0-0.8-0.1-1.7-0.1c-2.1,0-5.3,0.2-9.7,0.5c-0.3,0.5-0.8,1.1-1.4,1.6c-1.2,1-4.4,1.5-6.7,1.8
	c-0.2,1.8-0.7,3-1.5,3.9c-2.4,2.6-15.7,4-17.2,4.1c-0.2,0-0.3,0-0.4,0c-0.9,0-3.6-0.3-6.2-3.8c-15.2,20.6-24.1,46.1-24.1,73.6
	c0,18.2,3.9,35.4,10.9,50.9c11.8-0.1,25.1-0.2,38-0.4C126.1,186.2,127.7,174.4,129.1,170.9L129.1,170.9z M211.4,68.9l-0.5-5.2
	c-3-0.3-7.5-0.4-9.4-0.5h-1.3c-1.8,0-6.4,0.2-9.4,0.5l-0.5,5.2c2.8-0.5,5.8-0.8,7.6-0.9h5.8C205.7,68.1,208.7,68.4,211.4,68.9
	L211.4,68.9z"/>
<g>
	<path class="st1" d="M47.9,197c0,0,116.5-1.2,134.3-1.2c15.9,0,98.3,0.8,111.9,1.2s59.6,1.9,59.6,1.9s-55,1.9-60.8,1.9
		s-119.2-1.2-128.5-0.8s-83.6-1.2-92.1-0.8S47.9,197.1,47.9,197L47.9,197z"/>
	<path class="st1" d="M92.2,13.1c0.7-0.4,0.6-2.1,2.3-4s8-5.1,8-5.1s-13,3.9-19.1,7.2s-7.6,5.5-7.6,5.5s5.6-2.3,9.2-3.7
		C87.6,12.1,91.5,13.5,92.2,13.1L92.2,13.1z M343,55.2l-40.1-4.8c-0.2-1.8-0.5-3.2-0.9-4.2c1.8,0.5,5.1,1.3,10.2,2.1
		c7.2,1.1,14.3,1.1,16,1c0.4,0.5,1.1,0.8,1.8,0.8c1.3,0,2.4-1.1,2.4-2.4s-1.1-2.4-2.4-2.4c-1,0-1.9,0.6-2.2,1.5
		c-1.8-0.1-8.2-0.5-14-1.9s-11.6-4.2-13.2-5c-0.2-1-0.4-1.6-0.6-1.9c-0.9-1-6.6-2.8-8.3-2.9c-1.8-0.1-3.6,0-4.7,1.5
		c-0.7,1-1.1,3.3-1.3,4.3c-0.9,0.4-1.8,1.1-2.5,2.1c1.8-6.1,3.6-11.9,4.2-12.9c0.2-0.2,0.9-0.5,1.8-0.9c0.3,0.2,0.7,0.4,1,0.5
		c7.2,3.4,14.2,5.1,22.1,5.4c1.4,0,2.8,0.1,4.1,0.1c5.3,0,9.6-0.7,12-3.7c0.4-0.5,4.8-5.5,4.2-11.2c-0.6-6.2-6.3-9.6-11.5-12.3
		c-5.7-2.9-18.9-8-23.4-8.3c-4.3-0.3-12.1,2.6-14.6,11.5c-1.5,5.6-1.1,10.1,1.1,13.6c-1,0.4-1.6,0.7-1.9,0.9
		c-1.6,1.2-5,13.3-6.6,18.9c-0.6-0.1-1.1-0.1-1.3-0.1c-0.9,0.1-2.8,3.1-3,3.3c-6.7-0.5-12.9-0.9-15.4-0.7
		c-5.6,0.5-14.6,7.4-17.9,10.1l-0.1-3.1h0.1c0.2-0.2,0.4-0.4,0.4-0.7c0.6-3.8,0.4-4.4,0.4-4.6c-0.5-1.6-4.3-2.6-11.2-2.8
		c-7.9-0.3-14.7,1.2-15.8,2.3c-1.3,1.3,0,5.9,0,5.9c0.2,0.5,0.6,0.7,1.1,0.7c0.1,0,0.2,0,0.3,0l0.3,3c-2.1-0.3-5.9-0.7-12.4-0.7H201
		c-6.6,0-10.3,0.3-12.4,0.7l0.3-3c0.1,0,0.2,0,0.3,0c0.5,0,0.9-0.2,1.1-0.7c0,0,1.3-4.6,0-5.9c-1.1-1.1-8-2.6-15.8-2.3
		c-6.9,0.2-10.6,1.2-11.2,2.8c-0.1,0.2-0.3,0.8,0.4,4.6c0,0.3,0.2,0.5,0.4,0.7h0.1l-0.1,3.1c-3.4-2.7-12.4-9.6-17.9-10.1
		c-2.5-0.2-8.7,0.1-15.4,0.7c-0.2-0.3-2.1-3.2-3-3.3c-0.2,0-0.7,0-1.3,0.1c-1.5-5.6-5-17.7-6.6-18.9c-0.2-0.2-0.9-0.5-1.8-0.9
		c2.2-3.5,2.7-8,1.1-13.6C116.3,2.6,108.5-0.3,104.1,0c-4.5,0.3-17.8,5.4-23.4,8.3c-5.2,2.7-10.8,6.1-11.5,12.3
		c-0.6,5.7,3.8,10.7,4.2,11.2c2.5,3.1,6.7,3.7,12,3.7c1.3,0,2.7,0,4.1-0.1c7.8-0.3,14.9-2,22.1-5.4c0.4-0.2,0.7-0.4,1-0.5
		c0.9,0.4,1.6,0.7,1.8,0.9c0.5,1,2.4,6.8,4.2,12.9c-0.7-1-1.6-1.7-2.5-2.1c-0.2-1.1-0.6-3.4-1.3-4.3c-1.1-1.5-2.9-1.6-4.7-1.5
		c-1.7,0.1-7.4,1.9-8.3,2.9c-0.3,0.3-0.5,0.9-0.7,1.9c-1.6,0.8-7.4,3.5-13.2,5c-5.8,1.4-12.2,1.8-14,1.9c-0.4-0.9-1.2-1.5-2.2-1.5
		c-1.3,0-2.4,1.1-2.4,2.4s1.1,2.4,2.4,2.4c0.7,0,1.4-0.3,1.8-0.8c1.7,0,8.8,0.1,16-1c5.2-0.8,8.5-1.6,10.2-2.1
		c-0.3,1-0.7,2.5-0.9,4.2l-40.2,4.8c0,0-3.9,0.4-2.8,7.3c1,7,4.4,7.4,4.4,7.4l41.1-4.9c1.8,3.7,3.9,4.8,5.1,4.8c0.1,0,0.1,0,0.2,0
		s13.8-1.6,15.3-3.1c0.7-0.8,0.9-2.7,0.8-4.5c2.7-0.2,7.1-1,7.8-1.5c0.9-0.7,1.2-2.1,1.2-2.1l0,0c6.1-0.5,11.4-0.8,13.7-0.5
		c5.5,0.5,15.6,8.6,17.7,10.4l-0.2,5.1c0,0.3,0.1,0.6,0.4,0.8c0.1,0.1,1.3,1.1,4.4,1.8c-14,10-12.6,19.5-12.6,19.5
		c-4.5,5.3-7.3,13.7-8.9,20.4c-2.7-4.7-8.1-4.4-8.8-4.4c-0.7,0.1-8.4,3.7-8.4,3.7l0,0c-4.6,1.8-7.8,6.4-7.8,11.9
		c0,7,5.4,12.7,12.1,12.7c1.6,0,3.2-0.3,4.6-0.9l0,0l0,0c0.1-0.1,0.3-0.1,0.4-0.2c2.4-1.1,4.3-2.4,5.7-3.7
		c0.3,8.8,2.5,16.1,5.1,21.7c-0.8,0.1-3.9,0.6-5.4,4.9c-0.2,0.5-0.5,2.2-0.9,4.5c-4.3-0.4-9.2,1.4-11,5.9c-1.6,4.3-4,24.2-4.1,25.1
		c-0.1,0.6,0.3,1.1,0.9,1.1h0.1c0.5,0,0.9-0.4,1-0.9c0-0.2,2.4-20.6,4-24.6c1.3-3.5,5.3-4.9,8.8-4.6c-0.6,3.8-1.3,8.8-2,13.6
		c-0.9,0.2-2.5,0.4-3.4,0.4c-1.4-0.1-3-1.2-3.6-1s-2.4,16.5-2.4,16.5l7.2,0.3c0.1,0.4,0.4,0.8,0.8,0.9h0.1c0.5,0,0.9-0.4,1-0.9
		c1.8-13.4,4.7-33.8,5.3-35.6c0.2-0.7,0.5-1.2,0.8-1.6c0.5,0,1.1,0,1.3,0.5c0.3,0.8-1.7,19.1-1.6,19.5c0.1,0.4,0.4,0.4,0.6,0.1
		s1.6-12.9,2.3-13.1c0.7-0.2,1.7,1.8,1.7,1.8s-0.8,9.9-0.6,10.1s0.5,0.4,0.8-0.2c0.3-0.6,1.6-8.1,2.1-8.1c0.5,0.1,2.3,2,3,2
		l-0.3,3.9c-1.7,1.3-2.6,2.7-2.6,4.2c0,1.4,0.7,2.5,1.4,3.2c-0.4,0.4-0.9,0.8-1.3,1.4c-1.7-0.7-7.8-0.8-8.3-0.8
		c-0.6,0-1,0.1-1.5,0.3c-0.4,0.3-2,12-2,12s7.8,0.6,9.9,0.4c0.2,0.2,0.4,0.4,0.8,0.4h0.1c0.6-0.1,0.9-0.5,0.9-1.1c0-0.1,0-0.3,0-0.4
		l19.3-0.1l0.9,1.7l27.4-0.6h0.2l27.4,0.6l0.9-1.7l19.3,0.1c0,0.1,0,0.3,0,0.4c-0.1,0.6,0.4,1,0.9,1.1h0.1c0.3,0,0.6-0.1,0.8-0.4
		c2.1,0.2,9.9-0.4,9.9-0.4s-1.5-11.7-2-12s-0.8-0.3-1.5-0.3c-0.5,0-6.6,0.1-8.3,0.8c-0.4-0.6-0.9-1-1.3-1.4c0.7-0.7,1.4-1.8,1.4-3.2
		c0-1.5-0.9-2.9-2.6-4.2l-0.3-3.9c0.6,0,2.4-2,3-2c0.6-0.1,1.8,7.4,2.1,8.1c0.3,0.6,0.6,0.4,0.8,0.2c0.3-0.2-0.6-10.1-0.6-10.1
		s1-2,1.7-1.8s2.1,12.8,2.3,13.1s0.4,0.3,0.6-0.1c0.1-0.4-1.9-18.7-1.6-19.5c0.2-0.5,0.9-0.5,1.3-0.5c0.3,0.4,0.6,1,0.8,1.6
		c0.6,1.8,3.5,22.3,5.3,35.6c0.1,0.5,0.5,0.9,1,0.9h0.1c0.5-0.1,0.8-0.4,0.8-0.9l7.2-0.3c0,0-1.8-16.3-2.4-16.5s-2.3,1-3.6,1
		c-0.9,0-2.5-0.2-3.4-0.4c-0.7-4.8-1.4-9.8-2-13.6c3.5-0.3,7.4,1.1,8.8,4.6c1.5,4,4,24.4,4,24.6c0.1,0.5,0.5,0.9,1,0.9h0.1
		c0.5-0.1,0.9-0.6,0.9-1.1c-0.1-0.9-2.5-20.8-4.1-25.1c-1.7-4.5-6.6-6.3-11-5.9c-0.4-2.3-0.7-4-0.9-4.5c-1.5-4.4-4.6-4.9-5.4-4.9
		c2.5-5.6,4.7-12.9,5.1-21.7c1.4,1.3,3.3,2.6,5.7,3.7c0.1,0.1,0.3,0.1,0.4,0.2l0,0l0,0c1.4,0.6,3,0.9,4.6,0.9c6.6,0,12-5.7,12-12.7
		c0-5.4-3.3-10.1-7.8-11.8l0,0c0,0-7.6-3.7-8.4-3.7s-6.1-0.3-8.8,4.4c-1.6-6.7-4.4-15.1-8.9-20.4c0,0,1.4-9.5-12.6-19.5
		c3.1-0.8,4.3-1.7,4.4-1.8c0.2-0.2,0.4-0.5,0.4-0.8l-0.2-5.1c2.2-1.8,12.2-9.8,17.7-10.4c2.2-0.2,7.6,0.1,13.7,0.5l0,0
		c0,0,0.3,1.3,1.2,2.1c0.7,0.5,5.1,1.3,7.8,1.5c0,1.9,0.1,3.8,0.8,4.6c1.4,1.6,15.1,3.1,15.3,3.1c0,0,0.1,0,0.2,0
		c1.2,0,3.3-1.1,5.1-4.8l41.1,4.9c0,0,3.4-0.4,4.4-7.3C346.9,55.6,343,55.2,343,55.2L343,55.2z M330.7,46.5c0.5,0,0.9,0.4,0.9,0.9
		s-0.4,0.9-0.9,0.9s-0.9-0.4-0.9-0.9S330.1,46.5,330.7,46.5z M71.2,48.3c-0.5,0-0.9-0.4-0.9-0.9s0.4-0.9,0.9-0.9s0.9,0.4,0.9,0.9
		S71.7,48.3,71.2,48.3z M89.5,33.5c-7.8,0.3-12.2-0.1-14.5-2.9c0,0,0,0-0.1,0c0,0-4.2-4.7-3.7-9.7c0.5-4.7,4.5-7.7,10.4-10.7
		c5.5-2.8,18.5-7.8,22.6-8.1c0.2,0,0.3,0,0.5,0c3.8,0,10,2.6,12,10c1.4,5.2,1.1,9.3-1.1,12.3c-0.6-0.2-1.2-0.4-1.8-0.6
		c0.7-1,1.7-3,1.7-6.6c0-5.4-2.7-9.2-2.7-9.2c0.7,2.4-0.8,8.3-4.9,10.3c-2,1-4.2,1.4-5.9,1.5c-4.1-1.3-7.6-2.2-8.5-2.2
		c-0.5,0-0.9,0.2-1.2,0.4c-3.6,1.5-0.9,5.6-0.9,5.6s-2.6,2.1-9,2.3s-9.3-1.5-9.3-1.5s2,6,5,7.1c3,1.1,13,1.2,19.5,0
		c5.1-1,9.3-2.7,10.8-3.3c0.5,0.2,1.1,0.4,1.6,0.5C103.4,31.6,96.8,33.2,89.5,33.5L89.5,33.5z M103.3,39.5c0.7-0.5,3.9-1.6,5.9-2.1
		c0.4,0.1,0.9,0.2,1.1,0.6c0.4,0.6,0.7,2.1,0.9,3.2c-2.8,0.5-6.3,1.5-8.3,2C102.9,41.7,103.1,40,103.3,39.5L103.3,39.5z M91.5,46.6
		c-4.5,1-11.8,1.9-12,1.5s0.6-0.8,0.8-0.9c0.3-0.1,8.4-1.2,14.1-2.7c3.6-1,5.5-1.8,6.4-2.3c0,0.5-0.1,1-0.1,1.5
		C99.3,44.3,95.1,45.9,91.5,46.6L91.5,46.6z M117.9,66.1c-3.7-3.4-5.2-11.4-5.2-11.4s-1.6,0.7-4.3,1.6s-5.7-0.2-5.7-0.2
		s-0.3,1.4,0.9,5.4c1,3.3,2.8,5.2,4,6.2c-0.4,0.1-0.7,0.1-0.9,0.1c-0.5,0-3.3-1.5-5-8.6c-1.8-7.2,0-12.2,0.6-13.6c0,0,0,0,0.1,0
		c2.8-0.8,8.8-2.4,11.6-2.7c-0.5,1.5-1.1,4.5-0.3,8.9c1.2,6.5,3.3,11.5,5.9,13.9C119.1,65.8,118.5,65.9,117.9,66.1L117.9,66.1z
		 M120.8,64.2c-2.2-2.1-4.2-6.8-5.3-12.8c-0.8-4.4-0.1-7,0.3-8.2c0.8,0.5,1.6,1.6,2.1,3c-0.3,0.6-0.8,2.4-0.3,6.4
		c0.7,4.8,2.7,8.2,3.3,9.1C120.9,62.7,120.9,63.6,120.8,64.2z M121.3,45.4c-1-3.4-4.3-14.7-5.2-16.2c-0.6-1-3.6-2.1-14.9-5.8
		c-3.1-1-6.6-2.2-7.4-2.5c-0.1-0.1-0.1-0.2-0.2-0.3c0-0.3,0-0.7,0.5-1c3.2,0.5,22.6,6.9,24.1,7.9c0.9,0.9,3.6,9.5,5.8,17.6
		C123.1,45.2,122.2,45.3,121.3,45.4L121.3,45.4z M160.7,59.8c-1.4-0.1-12.5-6.1-14.8-6.5c-1.2-0.2-9,0.3-16.6,0.8
		c-0.1-0.3-0.2-0.7-0.3-1.1c-0.3-1.2-0.3-2.1-0.1-2.8c7.2-0.6,14-1,16.6-0.8c5.2,0.5,14.4,7.7,17.3,10
		C162.2,59.6,161.4,59.9,160.7,59.8L160.7,59.8z M132.9,136c-4.3,0-7.8-3.6-7.8-8.2s3.5-8.2,7.8-8.2s7.8,3.7,7.8,8.2
		C140.6,132.4,137.1,136,132.9,136z M144.4,127.9c-0.3,1.4-0.9,2.1-1.2,1.9c0,0,1.9-4.7-2-9.2s-10.6-2.8-10.6-2.8
		c-0.1-0.3,0.1-0.8,1.7-1.3c1.6-0.5,6.5-0.9,9.5,2S144.8,126.5,144.4,127.9L144.4,127.9z M155,125.2h-0.1c-0.1,0-0.3,0-0.4,0
		c-0.1,0-0.1,0-0.2,0c-0.1,0-0.2,0-0.4,0c-0.1,0-0.2,0-0.3,0s-0.2,0-0.4,0c-0.1,0-0.2,0-0.3,0s-0.2,0-0.4,0s-0.2,0-0.4,0
		c-0.1,0-0.2,0-0.3,0s-0.3,0-0.4,0c-0.1,0-0.2,0-0.3,0s-0.3,0-0.4,0c-0.1,0-0.2,0-0.3,0s-0.3,0-0.4,0c-0.1,0-0.2,0-0.3,0
		s-0.2,0-0.4,0c-0.1,0-0.2,0-0.2,0c-0.1,0-0.2,0-0.3,0s-0.1,0-0.2,0h-0.1c-0.1,0-0.3,0-0.4-0.1c-0.1,0-0.2,0-0.3-0.1
		c0,0-0.2-0.6-0.3-1.4c-0.1-0.3-0.1-0.6-0.1-0.9s-0.1-0.6-0.1-0.9v-0.1c-0.1-0.9-0.1-1.8,0.2-2.3h7.8c0,0.5,0,1.1,0,1.6
		c0,1.4,0.1,2.8,0.2,4.2C155.3,125.2,155.2,125.2,155,125.2L155,125.2z M276.7,127.9c0,4.5-3.5,8.2-7.8,8.2s-7.8-3.6-7.8-8.2
		s3.5-8.2,7.8-8.2S276.7,123.4,276.7,127.9z M260.1,118.4c3-2.9,7.9-2.6,9.5-2c1.6,0.5,1.7,1,1.7,1.3c0,0-6.8-1.7-10.6,2.8
		c-3.9,4.5-2,9.2-2,9.2c-0.3,0.2-0.9-0.5-1.2-1.9C257.1,126.5,257.1,121.4,260.1,118.4L260.1,118.4z M246.6,119.5h7.8
		c0.3,0.5,0.3,1.4,0.2,2.3v0.1c0,0.3-0.1,0.6-0.1,0.9c-0.1,0.3-0.1,0.6-0.1,0.9c-0.1,0.8-0.3,1.4-0.3,1.4c-0.1,0-0.2,0.1-0.3,0.1
		s-0.3,0-0.4,0.1h-0.1c-0.1,0-0.1,0-0.2,0c-0.1,0-0.2,0-0.3,0s-0.2,0-0.2,0c-0.1,0-0.2,0-0.4,0c-0.1,0-0.2,0-0.3,0s-0.3,0-0.4,0
		c-0.1,0-0.2,0-0.3,0s-0.3,0-0.4,0c-0.1,0-0.2,0-0.3,0s-0.3,0-0.4,0c-0.1,0-0.2,0-0.3,0s-0.2,0-0.4,0c-0.1,0-0.2,0-0.4,0
		c-0.1,0-0.2,0-0.3,0s-0.2,0-0.4,0c-0.1,0-0.2,0-0.3,0s-0.3,0-0.4,0c-0.1,0-0.1,0-0.2,0c-0.1,0-0.3,0-0.4,0h-0.1c-0.1,0-0.3,0-0.4,0
		c0.1-1.4,0.2-2.8,0.2-4.2C246.7,120.5,246.7,120,246.6,119.5L246.6,119.5z M200.2,60.2h1.3c0,0,9.1,0.2,12.1,0.8l1.1,11.7
		c-4.4-1.5-13.2-1.9-13.2-1.9H200c0,0-8.8,0.4-13.2,1.9l1.1-11.7C191.1,60.4,200.2,60.2,200.2,60.2L200.2,60.2z M164.9,49.7
		c0.3-0.2,2.1-1.3,9.4-1.5c7.8-0.3,13.4,1.2,14.3,1.7c0.1,0.5,0,2.1-0.2,3.1c-0.2,0-0.4-0.1-0.6-0.2c-1.9-0.5-5.4-1.5-10.3-1.6
		c-0.5,0-0.9,0-1.4,0c-5,0-9,0.7-10.9,1.1C165,51.2,164.9,50.1,164.9,49.7L164.9,49.7z M167.1,55.5c-0.4,0.4-0.8,12.4-0.9,15.9
		c-0.4,0.1-0.7,0.2-1,0.3l0.1-3.4c0.1-0.2,0.1-0.4,0-0.6l0.5-13.6c2.1-0.4,6.4-1.1,11.5-1c4.3,0.1,7.4,0.9,9.3,1.4l-1.6,18
		c-0.5-0.3-1.1-0.5-1.6-0.7c0.7-3.3,2.2-15.6,1.8-15.9c-0.5-0.3-4.7-1-4.8-0.9c-0.1,0.2-0.3,13.9-2.4,14.3c-2.1,0.4-4.2-0.3-4.4-0.8
		s0.8-14,0.8-14C171.6,54.4,167.6,55,167.1,55.5L167.1,55.5z M177.8,74.6l-0.8,7.6c-1.9,1.2-3.7,2.5-5.4,3.9l1.2-11.7
		C173.6,74.2,175.4,73.9,177.8,74.6L177.8,74.6z M160.2,193.9c-3.3,0.2-6,1.6-7.1,2.3c0.3-2.2,2.4-3.1,2.8-3.2
		c0.6-0.1,9.9-1.9,17.1,0c0.1,0.1,1,0.4,1.2,1.7C172.4,194.2,164.3,193.6,160.2,193.9L160.2,193.9z M175.2,189
		c-0.1,0.4-0.4,0.8-0.7,1.1c0.1-0.9-0.3-2.2-1.5-2.7c-1.9-0.8-15.2-0.8-16.6-0.1c-1.1,0.5-1.4,2-1.1,3.1c-0.6-0.6-0.9-1.3-0.9-1.9
		c0.1-1.2,1.5-2.4,2.2-2.8c1.5-0.1,10.4-1,16.8,0C174.7,186.9,175.4,188,175.2,189z M175.3,181.6c-0.2,1-1.2,1.7-1.7,2
		c1.9-1,0.1-3.1-2.4-3.9c-2.5-0.8-10.1-0.9-13,0.8c-2.2,1.3-1.9,2.4-1.5,3.1c-0.1,0-0.2,0-0.2,0c-0.4-0.4-1.3-1.3-1.3-2.3
		c0-0.9,0.7-1.9,2-2.8c1-0.4,9.5-3.3,16.6-0.1C174.6,179.3,175.5,180.5,175.3,181.6L175.3,181.6z M157.8,176.2l2.5-34.1
		c3.4,6.5,8.4,12.1,14.4,16.3l-1.3,17.7C167.2,173.9,160.7,175.3,157.8,176.2L157.8,176.2z M192.4,186.4c0,0-5.1-18.7-4.4-19.1
		c0.7-0.4,1.6-0.5,1.9,0.1s2.6,13.8,2.8,15.6C192.8,184.8,193.1,186.7,192.4,186.4L192.4,186.4z M209.4,186.4
		c-0.8,0.3-0.5-1.6-0.3-3.4s2.4-15,2.8-15.6s1.3-0.5,1.9-0.1C214.6,167.7,209.4,186.4,209.4,186.4L209.4,186.4z M248.7,196.2
		c-1.1-0.8-3.8-2.1-7.1-2.3c-4.1-0.2-12.2,0.3-14,0.8c0.2-1.3,1.1-1.6,1.2-1.7c7.2-1.9,16.4-0.1,17.1,0
		C246.2,193.1,248.4,194,248.7,196.2L248.7,196.2z M247.5,188.4c0,0.6-0.3,1.2-0.9,1.9c0.3-1.1,0-2.6-1.1-3.1
		c-1.5-0.6-14.8-0.6-16.6,0.1c-1.2,0.5-1.6,1.8-1.5,2.7c-0.3-0.3-0.6-0.7-0.7-1.1c-0.2-0.9,0.5-2.1,1.9-3.4c6.4-1,15.4-0.1,16.8,0
		C246,186.1,247.4,187.2,247.5,188.4z M246.6,181.3c0,1-0.8,1.9-1.3,2.3c-0.1,0-0.1,0-0.2,0c0.4-0.7,0.7-1.8-1.5-3.1
		c-3-1.7-10.5-1.6-13-0.8s-4.2,2.9-2.4,3.9c-0.5-0.3-1.5-0.9-1.7-2s0.7-2.3,1.6-3.2c7.1-3.3,15.5-0.3,16.6,0.1
		C245.9,179.5,246.6,180.4,246.6,181.3L246.6,181.3z M227.1,158.5c6-4.2,11-9.8,14.4-16.3l2.5,34.1c-2.9-0.9-9.4-2.4-15.6,0
		L227.1,158.5L227.1,158.5z M244.4,121.1c0,9.2-2.9,17.8-7.8,24.8c7.9-12.7,7.2-23.3,7-23.8c-0.2-0.4-0.6-0.3-0.8,0.3
		c0,0-5.9,37.9-41.8,38.5h-0.2c-35.9-0.6-41.8-38.5-41.8-38.5c-0.2-0.7-0.5-0.8-0.8-0.3c-0.2,0.4-0.9,11,7,23.7
		c-4.9-7.1-7.8-15.6-7.8-24.8c0-24,19.5-43.5,43.5-43.6C224.9,77.5,244.4,97.1,244.4,121.1L244.4,121.1z M224,74.6
		c2.5-0.7,4.2-0.4,5.1-0.2l1.2,11.7c-1.7-1.4-3.5-2.7-5.4-3.9L224,74.6L224,74.6z M235.6,71.4c-0.1-3.5-0.4-15.6-0.9-15.9
		c-0.5-0.4-4.5-1-7.4-0.9c0,0,1,13.5,0.8,14s-2.3,1.3-4.4,0.8s-2.3-14.2-2.4-14.3c-0.1-0.2-4.3,0.5-4.8,0.9
		c-0.4,0.3,1.1,12.6,1.8,15.9c-0.5,0.2-1.1,0.5-1.6,0.7l-1.6-17.8c1.9-0.5,5.1-1.3,9.3-1.4c5.1-0.1,9.5,0.5,11.5,1l0.5,13.6
		c0,0.2,0,0.4,0,0.6l0.1,3.4C236.3,71.6,236,71.5,235.6,71.4L235.6,71.4z M236.7,52.3c-1.8-0.4-5.9-1.1-10.9-1.1c-0.5,0-0.9,0-1.4,0
		c-4.9,0.1-8.4,1.1-10.3,1.6c-0.2,0.1-0.4,0.1-0.6,0.2c-0.2-1-0.4-2.6-0.2-3.1c0.9-0.5,6.5-2,14.3-1.7c7.3,0.3,9,1.3,9.4,1.5
		C237,50.1,236.8,51.2,236.7,52.3L236.7,52.3z M272.8,53c-0.1,0.4-0.2,0.8-0.3,1.1c-7.6-0.5-15.4-0.9-16.6-0.8
		c-2.3,0.4-13.4,6.4-14.8,6.5c-0.6,0-1.4-0.2-2.1-0.4c2.9-2.3,12.1-9.5,17.3-10c2.6-0.3,9.4,0.2,16.6,0.8
		C273,50.9,273.1,51.8,272.8,53L272.8,53z M291.5,38.1c0.2-0.4,0.7-0.6,1.1-0.6c2,0.4,5.2,1.6,5.9,2.1c0.2,0.5,0.4,2.1,0.4,3.8
		c-2-0.6-5.5-1.5-8.3-2C290.8,40.3,291.1,38.8,291.5,38.1L291.5,38.1z M285,12c2-7.4,8.2-10,12-10c0.2,0,0.3,0,0.5,0
		c4.1,0.3,17.1,5.3,22.6,8.1c5.9,3.1,9.9,6,10.4,10.7c0.5,5-3.7,9.6-3.7,9.7l0,0c-2.2,2.8-6.6,3.2-14.5,2.9
		c-7.3-0.3-13.9-1.9-20.6-4.9c0.5-0.2,1-0.4,1.5-0.5c1.5,0.7,5.6,2.4,10.8,3.3c6.5,1.2,16.5,1.1,19.5,0s5-7.1,5-7.1
		s-2.9,1.8-9.3,1.5s-9-2.3-9-2.3s2.7-4.1-0.9-5.6c-0.3-0.2-0.7-0.3-1.2-0.4c-0.9,0-4.4,0.9-8.5,2.2c-1.7-0.1-3.9-0.5-5.9-1.5
		c-4.1-2-5.5-7.9-4.9-10.3c0,0-2.7,3.7-2.7,9.2c0,3.6,1,5.6,1.7,6.6c-0.6,0.2-1.2,0.5-1.8,0.6C284,21.3,283.6,17.2,285,12L285,12z
		 M277.8,45.1c2.2-8,4.9-16.6,5.8-17.6c1.5-1.1,20.9-7.4,24.1-7.9c0.5,0.3,0.5,0.8,0.5,1c0,0.1-0.1,0.2-0.1,0.3
		c-0.8,0.4-4.3,1.5-7.4,2.5c-11.4,3.7-14.3,4.9-14.9,5.8c-0.9,1.4-4.3,12.8-5.2,16.2C279.6,45.3,278.7,45.2,277.8,45.1L277.8,45.1z
		 M280.9,61.8c0.6-0.9,2.6-4.3,3.3-9.1c0.6-4.1,0-5.8-0.3-6.4c0.5-1.4,1.3-2.5,2.1-3c0.4,1.1,1.1,3.8,0.3,8.2
		c-1.1,5.9-3,10.7-5.3,12.8C280.9,63.6,280.9,62.8,280.9,61.8z M300.2,59.2c-1.8,7.2-4.5,8.7-5,8.6c-0.2,0-0.5-0.1-0.9-0.1
		c1.2-1,3-2.9,4-6.2c1.2-4.1,0.9-5.4,0.9-5.4s-3.1,1.1-5.7,0.2c-2.6-0.9-4.3-1.6-4.3-1.6s-1.5,8-5.2,11.4c-0.6-0.1-1.2-0.3-1.6-0.4
		c2.6-2.4,4.8-7.4,5.9-13.9c0.8-4.5,0.2-7.4-0.3-8.9c2.8,0.3,8.8,1.9,11.6,2.7l0,0C300.2,47,302,52,300.2,59.2L300.2,59.2z
		 M300.9,42.2c1,0.5,2.9,1.4,6.4,2.3c5.7,1.5,13.9,2.7,14.1,2.7c0.3,0.1,1,0.5,0.8,0.9s-7.5-0.5-12-1.5c-3.6-0.8-7.8-2.4-9.3-3
		C301,43.2,300.9,42.7,300.9,42.2L300.9,42.2z M309.6,13.1c0.7,0.4,4.6-1,7.3,0c3.6,1.4,9.2,3.7,9.2,3.7s-1.5-2.1-7.6-5.5
		s-19.1-7.2-19.1-7.2s6.3,3.2,8,5.1S308.9,12.7,309.6,13.1L309.6,13.1z M294.3,47.7c-1,0.3-1.6,1.5-1.3,2.7c0.3,1.2,1.4,1.9,2.5,1.6
		c1-0.3,1.6-1.5,1.3-2.7C296.4,48.1,295.3,47.4,294.3,47.7z M201,82.2h-0.1h-0.1c-21.4,0-38.8,17.4-38.8,38.8s17.4,38.8,38.8,38.8
		h0.1h0.1c21.4,0,38.8-17.4,38.8-38.8S222.4,82.2,201,82.2z M200.9,157.9c-20.3-0.1-36.7-16.6-36.7-36.8s16.5-36.8,36.7-36.8
		c20.3,0.1,36.7,16.6,36.7,36.8S221.2,157.8,200.9,157.9z M202.8,142.9c-14.6-1.4-26.3-13.1-27.9-27.7c-0.4-3.8-0.1-7.4,0.7-10.9
		c0.1-0.4-0.4-0.7-0.7-0.3c-3.7,5.4-5.7,12-5.4,19.1c0.7,15.8,13.4,28.8,29.2,29.8c14.1,0.9,26.3-7.6,31.1-19.8
		c0.1-0.4-0.4-0.7-0.6-0.4C222.9,139.7,213.3,143.9,202.8,142.9L202.8,142.9z M107.5,47.7c-1-0.3-2.2,0.5-2.5,1.6
		c-0.3,1.2,0.3,2.4,1.3,2.7s2.2-0.5,2.5-1.6C109.1,49.2,108.6,48,107.5,47.7z"/>
</g>
<text transform="matrix(1 0 0 1 0 259.9)" class="st2 st3 st4 st5">RIDER </text>
<text transform="matrix(1 0 0 1 208.13 259.9)" class="st2 st3 st4 st6">S</text>
<text transform="matrix(1 0 0 1 239.44 259.9)" class="st2 st3 st4 st7">T</text>
<text transform="matrix(1 0 0 1 272.67 259.9)" class="st2 st3 st4 st5">ORE</text>
</svg>
