<?xml version="1.0" encoding="utf-8"?>
<!-- Generator: Adobe Illustrator 26.4.1, SVG Export Plug-In . SVG Version: 6.00 Build 0)  -->
<svg version="1.1" id="Capa_1" xmlns="http://www.w3.org/2000/svg" xmlns:xlink="http://www.w3.org/1999/xlink" x="0px" y="0px"
	 viewBox="0 0 1100 800" style="enable-background:new 0 0 1100 800;" xml:space="preserve">
<style type="text/css">
	.st0{fill:none;stroke:#E4E4E4;stroke-width:4;stroke-miterlimit:10;stroke-dasharray:32.0882,32.0882;}
	.st1{fill:#F6F5F5;}
	.st2{fill:#A9BAE6;}
	.st3{fill:#E4E4E4;}
	.st4{fill:#FFFFFF;}
	.st5{fill:#708CD5;}
	.st6{fill:#D3DFFF;}
	.st7{fill:#FFFFFF;stroke:#708CD5;stroke-width:6;stroke-miterlimit:10;}
	.st8{fill:#EE6F57;}
	.st9{fill:#F9B384;}
	.st10{fill:#1F3C88;}
	.st11{fill:#E28B6D;}
	.st12{fill:#102048;}
	.st13{opacity:0.6;fill:#102048;}
	.st14{opacity:0.3;fill:#1F3C88;}
	.st15{opacity:0.6;fill:#E28B6D;}
	.st16{fill:#6F3428;}
	.st17{fill:#FBC343;}
	.st18{opacity:0.3;fill:none;stroke:#6F3428;stroke-width:8;stroke-miterlimit:10;}
	.st19{opacity:0.4;fill:#FC8879;}
	.st20{opacity:0.6;fill:#6F3428;}
	.st21{fill:none;stroke:#102048;stroke-width:8;stroke-miterlimit:10;}
</style>
<g>
	<g>
		<g>
			<g>
				<path class="st0" d="M1006.5,511.8c48.5,86.7-21.7,256.9-466.5,138.6c-223-59.3-389.6,74.3-423.9-19
					c-80-217.2,246.6-468.4,428.2-293C710.3,498.8,918.3,354,1006.5,511.8z"/>
			</g>
			<path class="st1" d="M1004,702.7H97.1C125.5,493,317.6,330.8,550.5,330.8C783.4,330.8,975.6,493,1004,702.7z"/>
		</g>
		<g>
			<path class="st2" d="M840.2,700.9h-250c-41,0-74.3-33.3-74.3-74.3V228.4c0-41,33.3-74.3,74.3-74.3h250c41,0,74.3,33.3,74.3,74.3
				v398.2C914.5,667.6,881.3,700.9,840.2,700.9z"/>
			<g>
				<g>
					<rect x="551.9" y="176.1" class="st1" width="328.1" height="476.6"/>
					<path class="st3" d="M880,176.1c0.1,185.9,6.1,410-14.8,459.6c-92,9-199.6,11.8-313.3,12.4l43.2-470.6L880,176.1z"/>
					<path class="st4" d="M850.6,620.7c-143.3,22.9-239.1,24.1-316.8,18.4c10.1-107.2,14.1-285.2,18.2-463l172.7,0.4l156.3,10.3
						C883.2,371.3,883.5,541.7,850.6,620.7z"/>
				</g>
				<g>
					
						<rect x="627" y="222.1" transform="matrix(0.9997 2.352837e-02 -2.352837e-02 0.9997 5.732 -16.7179)" class="st5" width="172.6" height="26.3"/>
					<g>
						<g>
							<g>
								
									<rect x="677.3" y="286.6" transform="matrix(0.9997 2.352839e-02 -2.352839e-02 0.9997 7.0942 -17.6879)" class="st5" width="155.7" height="12"/>
								
									<rect x="676.7" y="312.3" transform="matrix(0.9997 2.352875e-02 -2.352875e-02 0.9997 7.6908 -17.0799)" class="st6" width="105.9" height="12"/>
							</g>
							<g>
								
									<rect x="591.2" y="283.9" transform="matrix(0.9997 2.352853e-02 -2.352853e-02 0.9997 7.2822 -14.2591)" class="st7" width="36.9" height="36.9"/>
								<g>
									<path class="st8" d="M597.6,293.2c1.1,4.4,3.2,22.6,12.4,17.5c2.1-1.2,3.9-4.3,5.5-6.1c2.8-3.2,5.7-6.4,8.5-9.7
										c5.7-6.4,11.3-12.9,17-19.3c1.5-1.6-5-5.8-6.8-3.7c-5,5.7-10.1,11.4-15.1,17.2c-2.5,2.9-5,5.7-7.6,8.6
										c-1.7,2-5.8,8.4-8.4,9c1.4,0.5,2.8,0.9,4.2,1.4c1,0.8-0.9-5-0.9-5.1c-0.7-2.7-1.4-5.4-2.1-8.1
										C603.8,292.5,596.7,289.9,597.6,293.2L597.6,293.2z"/>
								</g>
							</g>
						</g>
						<g>
							<g>
								
									<rect x="675.8" y="353.3" transform="matrix(0.9997 2.352835e-02 -2.352835e-02 0.9997 8.6589 -17.309)" class="st5" width="128.2" height="12"/>
								
									<rect x="675.2" y="379.9" transform="matrix(0.9997 2.352838e-02 -2.352838e-02 0.9997 9.2875 -17.6104)" class="st6" width="155.7" height="12"/>
							</g>
							<g>
								
									<rect x="589.6" y="350.9" transform="matrix(0.9997 2.352853e-02 -2.352853e-02 0.9997 8.8583 -14.2034)" class="st7" width="36.9" height="36.9"/>
								<g>
									<path class="st8" d="M596,361.2c1.1,4.4,3.2,22.6,12.4,17.5c2.1-1.2,3.9-4.3,5.5-6.1c2.8-3.2,5.7-6.4,8.5-9.7
										c5.7-6.4,11.3-12.9,17-19.3c1.5-1.6-5-5.8-6.8-3.7c-5,5.7-10.1,11.4-15.1,17.2c-2.5,2.9-5,5.7-7.6,8.6
										c-1.7,2-5.8,8.4-8.4,9c1.4,0.5,2.8,0.9,4.2,1.4c1,0.8-0.9-5-0.9-5.1c-0.7-2.7-1.4-5.4-2.1-8.1
										C602.2,360.6,595.1,357.9,596,361.2L596,361.2z"/>
								</g>
							</g>
						</g>
						<g>
							<g>
								
									<rect x="674.2" y="420.6" transform="matrix(0.9997 2.352863e-02 -2.352863e-02 0.9997 10.2466 -17.5767)" class="st5" width="155.7" height="12"/>
								
									<rect x="673.6" y="445.9" transform="matrix(0.9997 2.352825e-02 -2.352825e-02 0.9997 10.8278 -16.5425)" class="st6" width="69.6" height="12"/>
							</g>
							<g>
								
									<rect x="588" y="417.9" transform="matrix(0.9997 2.352853e-02 -2.352853e-02 0.9997 10.4344 -14.1478)" class="st7" width="36.9" height="36.9"/>
								<g>
									<path class="st8" d="M594.9,428.7c1.1,4.4,3.2,22.6,12.4,17.5c2.1-1.2,3.9-4.3,5.5-6.1c2.8-3.2,5.7-6.4,8.5-9.7
										c5.7-6.4,11.3-12.9,17-19.3c1.5-1.6-5-5.8-6.8-3.7c-5,5.7-10.1,11.4-15.1,17.2c-2.5,2.9-5,5.7-7.6,8.6
										c-1.7,2-5.8,8.4-8.4,9c1.4,0.5,2.8,0.9,4.2,1.4c1,0.8-0.9-5-0.9-5.1c-0.7-2.7-1.4-5.4-2.1-8.1
										C601.1,428.1,594.1,425.4,594.9,428.7L594.9,428.7z"/>
								</g>
							</g>
						</g>
						<g>
							<g>
								
									<rect x="672.6" y="487.6" transform="matrix(0.9997 2.352838e-02 -2.352838e-02 0.9997 11.8226 -17.5209)" class="st5" width="155.7" height="12"/>
								
									<rect x="672" y="513.5" transform="matrix(0.9997 2.352849e-02 -2.352849e-02 0.9997 12.4262 -17.1146)" class="st6" width="123" height="12"/>
							</g>
							<g>
								
									<rect x="586.4" y="484.9" transform="matrix(0.9997 2.352853e-02 -2.352853e-02 0.9997 12.0106 -14.0921)" class="st7" width="36.9" height="36.9"/>
								<g>
									<path class="st8" d="M593.4,495.3c1.1,4.4,3.2,22.6,12.4,17.5c2.1-1.2,3.9-4.3,5.5-6.1c2.8-3.2,5.7-6.4,8.5-9.7
										c5.7-6.4,11.3-12.9,17-19.3c1.5-1.6-5-5.8-6.8-3.7c-5,5.7-10.1,11.4-15.1,17.2c-2.5,2.9-5,5.7-7.6,8.6
										c-1.7,2-5.8,8.4-8.4,9c1.4,0.5,2.8,0.9,4.2,1.4c1,0.8-0.9-5-0.9-5.1c-0.7-2.7-1.4-5.4-2.1-8.1
										C599.5,494.6,592.5,492,593.4,495.3L593.4,495.3z"/>
								</g>
							</g>
						</g>
						<g>
							<g>
								
									<rect x="671.1" y="553" transform="matrix(0.9997 2.352802e-02 -2.352802e-02 0.9997 13.3475 -16.3602)" class="st5" width="61.7" height="12"/>
								<path class="st6" d="M826.3,582.2l-155.7-3.7l-0.3,12c60.2,1.4,136.9,4.2,152.6,1.8C825.3,589.7,826.5,586.4,826.3,582.2z"
									/>
							</g>
							<g>
								
									<rect x="585.4" y="551.4" transform="matrix(0.9997 2.352850e-02 -2.352850e-02 0.9997 13.5752 -14.049)" class="st7" width="36.9" height="36.9"/>
								<g>
									<path class="st8" d="M591.8,561.2c1.1,4.4,3.2,22.6,12.4,17.5c2.1-1.2,3.9-4.3,5.5-6.1c2.8-3.2,5.7-6.4,8.5-9.7
										c5.7-6.4,11.3-12.9,17-19.3c1.5-1.6-5-5.8-6.8-3.7c-5,5.7-10.1,11.4-15.1,17.2c-2.5,2.9-5,5.7-7.6,8.6
										c-1.7,2-5.8,8.4-8.4,9c1.4,0.5,2.8,0.9,4.2,1.4c1,0.8-0.9-5-0.9-5.1c-0.7-2.7-1.4-5.4-2.1-8.1
										C598,560.6,590.9,558,591.8,561.2L591.8,561.2z"/>
								</g>
							</g>
						</g>
					</g>
				</g>
			</g>
			<g>
				<path class="st8" d="M789.1,157.4v36.8H641.3v-36.8c0-5.9,2.4-11.2,6.2-15c0.5-0.5,1-0.9,1.5-1.3c3.7-3,8.4-4.9,13.5-4.9
					c3.9,0,7.6-0.9,10.9-2.5c1.4-0.7,2.8-1.5,4.1-2.5c4.2-3.1,7.5-7.6,9.1-12.9c1.6-5.4,5-9.9,9.3-13.1c4.2-3,9.3-4.7,14.7-4.7h9.2
					c5.4,0,10.5,1.7,14.7,4.7c4.3,3.1,7.7,7.7,9.3,13.1c1.6,5.3,4.8,9.7,9.1,12.9c1.3,0.9,2.6,1.8,4.1,2.5c3.3,1.6,7,2.5,10.9,2.5
					c5.1,0,9.9,1.8,13.5,4.9C786.1,144.9,789.1,150.8,789.1,157.4z"/>
				<polygon class="st3" points="801.1,176.1 801.1,203.4 629.3,203.4 629.3,176.1 641.3,176.1 641.3,194.2 789.1,194.2 
					789.1,176.1 				"/>
				<ellipse class="st4" cx="715.2" cy="122.6" rx="13.1" ry="12.5"/>
			</g>
		</g>
		<g>
			<g>
				<path class="st9" d="M432,294.8c-5.2-1-10.1-9.8-11.8-13.1c-0.4-0.8-0.5-1.8-0.4-2.7l2.1-11.1c0,0,4.8,0.8,4.4,7.2
					c0,0.7,0.1,1.3,0.3,2l1.8,4.8l5.4-4.2l-3-8.4c0,0-4,1.1-6.1,0.4c-4.2-1.4,1.3-4.7,3.1-5c1.8-0.4,5.6-1.8,7.4,1.2
					c1.8,3,2.8,4.7,2.8,4.7s1.9-6.7,0.6-21.6c-0.1-0.7,1.6-0.7,2.1-0.2c1.4,1.4,3.7,5.8,3.8,19.2c0,0,0.2-15.5,2.9-17.1
					c2.2-1.3,3.3,6.3,1.8,19.2c0,0,2.9-11.2,4.9-11.2c3.5,0,0,29.8-8.7,38.7L432,294.8z"/>
				<path class="st9" d="M448.4,290.2c-0.2,1.5-0.3,2.9-0.5,4.3v0c-0.6,5-1.4,9.4-2.3,13.2c0,0.2-0.1,0.4-0.1,0.5
					c-2.6,10.8-3.1,16.2-12.2,14.7l-9.3-10.6l-0.1-0.1l-0.7-0.8l1.9-5.6l0.2-0.7l1.4-4.1l0.2-0.5l2.4-7l1-2.8L448.4,290.2z"/>
			</g>
			<g>
				<path class="st10" d="M275.6,675.7l-2.4,7.4c-16.2,5.3-25.7,11.4-26.3,18.6h46.9l3.8-24.8C288.1,679.2,280.5,677.6,275.6,675.7z
					"/>
				<path class="st9" d="M281.5,657.3l-5.9,18.4c4.9,1.9,12.5,3.5,22,1.2l2.4-16L281.5,657.3z"/>
				<path class="st9" d="M361.8,674.9l1.4-18.7l-22.1,1.2l-1.2,17.3C349.2,677.5,356.9,676.4,361.8,674.9z"/>
				<path class="st10" d="M388.3,701.6c-0.6-7.1-8.9-16.9-27.1-19.2l0.6-7.6c-4.8,1.5-12.5,2.7-21.9-0.3l-1.9,27.1H388.3z"/>
			</g>
			<polygon class="st9" points="343.9,299.6 317.3,299.8 317.3,259.6 343.1,259.6 343.1,262 343.2,274.8 343.4,295.2 			"/>
			<path class="st11" d="M343.2,276.7c-4.8,5-17.3-0.6-22.5-6.2l22.4-6.6L343.2,276.7z"/>
			<path class="st9" d="M349.4,250.3c0,3-0.2,6.1-0.7,9.1c-1.3,8.1-4.7,15.1-12.7,15.3c-18.7,0.5-24.1-10.2-27.6-18.9
				c-3.5-8.8,2.2-29.9,2.2-29.9l24.2-2.4l13.3,10.9C348.2,234.4,349.5,241.8,349.4,250.3z"/>
			<path class="st12" d="M309.2,250.7c0,0,5.3-0.2,6.3-14c9.6,3.2,16.5,0.3,22.1-6.1c4.7,6.2,17.9,8.2,22.4-4.6
				c3.2-9.2-5.7-23-18.6-14.6c-12.7-6.4-32-6-37.5,9.8c0,0-19.3,8.9,1.1,28.5C305.3,250,309.2,250.7,309.2,250.7z"/>
			<polygon class="st12" points="382.9,444.2 368.2,666.6 333.6,666.6 342.3,450.8 347.5,448.4 			"/>
			<polygon class="st10" points="292.9,413.8 268.6,666.6 306.3,666.6 342.1,456.6 382.9,444.2 384.7,399.4 293.9,397.3 			"/>
			<path class="st13" d="M298.3,414.4c20.6,7.4,68.8-1.1,78.8-11.3l-7.1-14.2l-79.4,10.5L298.3,414.4z"/>
			<path class="st4" d="M375.3,399.6c-0.7,0.3-1.3,0.6-2,0.8c-7.7,3.1-16.5,5.9-25.8,7.7c-5.6,1.1-11.4,1.8-17.3,2.1
				c-8.9,0.4-18.1-0.1-27.1-2.2l11.5-107.5l1.4-13.1c0,0,15.1,18.6,31.7-1.9L375.3,399.6z"/>
			<path class="st14" d="M330.1,410.2c-8.9,0.4-18.1-0.1-27.1-2.2l11.5-107.5l4.1-6C328.8,319.3,339.2,374.1,330.1,410.2z"/>
			<path class="st5" d="M317.3,283.2c11.5,48.7,16.2,98.8-0.7,154.4c-12.5,4.8-26.2,4.7-40.8,0.5l3.6-101.1l-85,58.4l-5.2-31.9
				C222,332.3,278.5,285.1,317.3,283.2z"/>
			<path class="st14" d="M373.2,400.4c-7.7,3.1-16.5,5.9-25.8,7.7c-5.1-29.4-6.3-77.6-2.1-99.4L373.2,400.4z"/>
			<path class="st15" d="M445.6,307.7c0,0.2-0.1,0.4-0.1,0.5c-2.6,10.8-3.1,16.2-12.2,14.7l-9.3-10.6l-0.1-0.1l1.2-6.3l0.2-0.7
				l1.4-4.1l0.2-0.5L445.6,307.7z"/>
			<path class="st5" d="M444,317.6c0,0-22.8,48.4-36.4,49.5c-13.1,1.1-19.3-11.6-19.3-11.6l9.3,70.7c-10.9,5.1-22.8,7.6-36.6,5.2
				c-12.3-39.9-16.9-91.4-17.8-148.8c9.9,0.6,29.6,1.5,36.7,6c12.6,8.1,28.2,37.1,28.2,37.1l18.2-24.8L444,317.6z"/>
			<g>
				<path class="st16" d="M165.7,249.4c0,0,1.4-23.1,3.7-22c2.4,1.1,7.1,21.2,7.1,21.2l-5,8.1L165.7,249.4z"/>
				<path class="st8" d="M235.2,667.2l0.7,7.6c1.2,13.4-8.7,25.3-22.2,26.5l-2,0.2c-13.4,1.2-25.3-8.7-26.5-22.2l-0.7-7.6
					L235.2,667.2z"/>
				
					<rect x="167.9" y="300.1" transform="matrix(0.996 -8.948319e-02 8.948319e-02 0.996 -42.6364 19.2448)" class="st17" width="50.8" height="370.2"/>
				
					<rect x="181.6" y="292.7" transform="matrix(0.996 -8.948348e-02 8.948348e-02 0.996 -39.9492 18.881)" class="st18" width="18.1" height="324.5"/>
				<polygon class="st12" points="235.2,667.2 184.6,671.8 183.2,656.9 182.3,646.6 179.4,614.9 230.1,610.3 232.9,642 233.9,652.4 
									"/>
				
					<rect x="182.7" y="644.3" transform="matrix(0.996 -8.951984e-02 8.951984e-02 0.996 -57.3055 21.2352)" class="st17" width="50.8" height="10.4"/>
				<path class="st8" d="M151.4,303.1l14.1-56.4c0,0,4.9,2.2,10.7-1.5l25.8,53.3L151.4,303.1z"/>
			</g>
			<path class="st9" d="M312,248.4c-0.2-0.8-4-2-4.8-2.2c-1.3-0.4-2.7-0.5-3.9,0c-4.6,2.1-4,8.6-1.6,12c1.3,1.9,3.3,3.4,5.6,4.1
				c0.8,0.2,8.7,0.3,8.3-0.9C315.6,261.4,312,248.4,312,248.4z"/>
			<path class="st9" d="M168.1,379.9c-1.2-3.7-5.1-5.8-8.8-4.5c-5.8,2-10.8,5.4-11.6,11.1c-0.7,5.2,1.9,21.9,13.6,24.1l-1-8.6
				c0,0,7.1-1.7,8.6-4.8C170,395,170.1,385.9,168.1,379.9z"/>
			<path class="st10" d="M384.7,322.5c0.6,3.7,1.1,7.3,1.6,11c0.5,3.7,0.9,7.3,1.4,11l1.2,11c0.3,3.7,0.7,7.4,0.9,11.1l-0.6,0.1
				c-0.6-3.7-1.2-7.3-1.7-11l-1.4-11c-0.4-3.7-0.8-7.4-1.2-11c-0.4-3.7-0.7-7.4-0.9-11.1L384.7,322.5z"/>
			<path class="st10" d="M280.6,321.9c0,4.1-0.1,8.2-0.2,12.3c-0.1,4.1-0.3,8.2-0.5,12.3l-0.7,12.3c-0.3,4.1-0.6,8.2-1,12.3l-0.6,0
				c0-4.1,0.1-8.2,0.2-12.3l0.5-12.3c0.2-4.1,0.4-8.2,0.7-12.3c0.3-4.1,0.6-8.2,0.9-12.3L280.6,321.9z"/>
			<path class="st12" d="M330.8,248c0.3,1.5-0.3,2.8-1.3,3.1c-1.1,0.2-2.2-0.7-2.5-2.2c-0.3-1.5,0.3-2.8,1.3-3.1
				C329.3,245.6,330.5,246.5,330.8,248z"/>
			<path class="st12" d="M346.2,246.2c-0.1,1.5-1,2.7-2.1,2.6c-1.1,0-1.9-1.3-1.9-2.8c0.1-1.5,1-2.7,2.1-2.6
				C345.4,243.5,346.3,244.7,346.2,246.2z"/>
			<path class="st11" d="M337.6,247.4c0.5,1.3,0.4,2.7,0.8,3.7c0.2,0.5,0.4,1,0.7,1.3c0.3,0.3,0.8,0.5,1.5,0.7
				c0.7,0.3,1.4,0.7,1.8,1.4c0.5,0.7,0.6,1.8,0.2,2.5c-0.4,0.7-1,1.2-1.5,1.5c-0.5,0.4-1,0.7-1.6,1.1l-0.4-0.5
				c0.4-0.5,0.9-1,1.3-1.4c0.4-0.5,0.8-0.9,1-1.3c0.3-0.7-0.4-1.5-1.4-1.9c-0.5-0.2-1.3-0.4-1.9-1.1c-0.6-0.6-0.9-1.3-1-2
				c-0.3-1.4,0-2.7-0.1-3.9L337.6,247.4z"/>
			<path class="st12" d="M323.4,244.1c0.2-0.9,0.8-1.8,1.6-2.4c0.8-0.6,1.8-1,2.8-1.1c2-0.1,4,1,4.9,2.7l-0.5,0.4
				c-1.3-1.1-2.8-1.6-4.3-1.6c-1.5,0-2.9,0.8-3.9,2.2L323.4,244.1z"/>
			<path class="st12" d="M339.4,242.2c0.2-0.7,0.6-1.4,1.2-2c0.6-0.6,1.4-1,2.2-1.1c1.7-0.3,3.4,0.6,4.1,2l-0.5,0.4
				c-1.1-0.7-2.3-1-3.4-0.9c-0.6,0.1-1.1,0.3-1.6,0.6c-0.5,0.3-1,0.8-1.5,1.2L339.4,242.2z"/>
			<path class="st4" d="M330.8,262.4c2.7,4.2,6.3,4.7,9.1,0.2L330.8,262.4z"/>
			<path class="st19" d="M349.5,249.2c0,3-0.3,7.1-0.8,10.1c-1.9-0.6-3.2-2.4-3.2-4.4C345.5,252.5,347.3,249.6,349.5,249.2z"/>
			<circle class="st19" cx="324.2" cy="257.6" r="5"/>
			<path class="st11" d="M308.7,253.4c-1-0.7-1.9-1.4-2.8-1.8c-0.4-0.2-0.9-0.4-1.2-0.3c-0.4,0-0.8,0.2-1.3,0.6l-0.5-0.3
				c0.2-0.6,0.7-1.3,1.5-1.6c0.8-0.3,1.6-0.1,2.2,0.3c1.2,0.7,2.1,1.7,2.6,2.9L308.7,253.4z"/>
			<path class="st20" d="M169,397.2l-7.2,21.8l-1.5-17.1C164.8,401,167.2,399.2,169,397.2z"/>
		</g>
		<line class="st21" x1="50.3" y1="701.8" x2="1050.8" y2="701.8"/>
	</g>
</g>
</svg>
