<?xml version="1.0" encoding="utf-8"?>
<!-- Generator: Adobe Illustrator 26.4.1, SVG Export Plug-In . SVG Version: 6.00 Build 0)  -->
<svg version="1.1" xmlns="http://www.w3.org/2000/svg" xmlns:xlink="http://www.w3.org/1999/xlink" x="0px" y="0px"
	 viewBox="0 0 1100 800" style="enable-background:new 0 0 1100 800;" xml:space="preserve">
<style type="text/css">
	.st0{fill:#FFFFFF;}
	.st1{opacity:0.5;}
	.st2{fill:#EED5D5;}
	.st3{fill:#8CABEF;}
	.st4{fill:#262B33;}
	.st5{fill:#3B3387;}
	.st6{fill:#AA6755;}
	.st7{fill:#4F4B47;}
	.st8{fill:#A9B4B9;}
	.st9{fill:#5D66D3;}
	.st10{fill:#474EBB;}
	.st11{fill:#292949;}
	.st12{fill:#D67086;}
	.st13{fill:#826656;}
	.st14{fill:#EAC1A4;}
	.st15{fill:#3B3631;}
	.st16{fill:#D5C6AB;}
	.st17{fill:#1B1B30;}
	.st18{fill:#353A85;}
	.st19{fill:#BABCBE;}
</style>
<g id="Background">
	<rect class="st0" width="1100" height="800"/>
</g>
<g id="Shadow">
	<g class="st1">
		<path class="st2" d="M522,644.1c-28.2,0.1-56.4,0.8-84.5,3.9c-10.6,1.2-21,3.8-31.6,4.8c-21.2,2.1-42.1,6-63.4,7.8
			c-17.2,1.4-34.4,2.3-51.5,4.1c-16,1.7-33.8,1.3-49.7-1.5c-11.8-2.1-23.6-3.3-35.2-6.7c-13-3.8-27.1-6.5-40.6-6.4
			c-19.3,0.1-38,0.2-56.5,6.8c-6.5,2.3-14.4,6.2-19.3,11.1c-11.3,11.3-12.8,39.4-1.5,51.1c18.9,19.7,59.3,27.4,85.8,27.8
			c29.1,0.4,57.3-1.8,86.4-3c27-1.2,54-2.9,81.1-2.8c55.3,0.1,110.7,0,165.9-3.7c51.9-3.5,103.9-2.3,155.9-2.3
			c53.3,0,106.3,0.4,159.2,7.5c23.1,3.1,46.6,4.2,69.8,6.3c20.8,1.9,40.7,0,61.4-1.8c17.4-1.5,34.6-6,50.4-13.5
			c12.5-6,34.7-24.5,38.6-38.8c10.7-39.9-151.3-39-176.2-38.9c-27.8,0.1-55.9,1-83.7,0c-11.7-0.4-23.2-2.7-34.6-5.2
			c-11.4-2.5-22.8-1.9-34.4-2.9c-48.1-4.4-96.3-3.7-144.5-3.7C553.4,644.2,537.7,644.1,522,644.1z"/>
	</g>
</g>
<g id="Object">
	<g>
		<g>
			<g>
				<polygon class="st3" points="870.1,513.3 873.3,586.1 864.1,709.9 850.3,710.9 833.6,598.4 810.4,503.3 				"/>
				<polygon class="st4" points="850.8,716.7 866.2,723 873.1,715.1 865.1,708.2 850.3,709.2 				"/>
			</g>
			<g>
				<polygon class="st3" points="772.7,487.5 769.6,542.6 778.6,706.2 792.4,706.9 813.1,599.5 831.3,481.9 				"/>
				<polygon class="st4" points="792,712.7 776.7,719.4 769.7,711.6 777.5,704.5 792.4,705.2 				"/>
			</g>
			<g>
				<path class="st5" d="M852.8,325.4l-43-4.6c0,0-23.9,2.6-40.2,59.4c-9,31.6-11.8,81.4-12.4,119.4c1,5.4,6.9,29.2,31.9,25.1
					c42.9-6.9,65.7-13.8,84.3-10.4c15.9,3.5,14.6-18.4,12.8-35.1l-6.3-51.7L852.8,325.4z"/>
			</g>
			<g>
				<path class="st6" d="M844.5,271.9c-10.8-2.4-22-4.5-32.9-2.4c-2.4,0.5-4.9,1.3-6.2,3.4c-0.5,0.8-0.8,1.7-1,2.6
					c-2.7,10.2-6.2,25.3,0.5,34.7c1.3,1.8,3,3.2,4.8,4.4c2.5,1.5,5.2,2.6,8,3.1c-0.6,2.5-1.4,5-2.4,7.4c2.5,3.7,14.1,4.2,16.2,0.6
					c0.1-3.1,0.2-6.2,0.4-9.3c1.4-0.6,2.8-1.3,4.1-2.1c4.9-3.3,8.2-8.2,10.1-13.7c2.1-6,5-11.8,6.8-17.9c0.7-2.2,1.2-4.8,0.1-6.8
					c-1.3-2.2-4-2.9-6.4-3.4C845.9,272.2,845.2,272,844.5,271.9z"/>
				<path class="st7" d="M808.4,277.7c5.4-3.4,13.4-4.9,18.4-4.6c15.2,1.1,20.8,12.3,21.6,26.3c4.2-5.3,12.1-12,12.5-18.9
					c0.4-5.6-0.4-13.3-3.5-18.1c-2.9-4.5-10.5-7-15-9.7c-4.2-2.5-8.4-5-12.7-7.4c-0.9-0.5-1.8-1-2.8-1.2c-1.2-0.2-2.4,0.1-3.6,0.4
					c-10,2.6-20,5.2-29.9,7.7c-1.9,0.5-4.1,1.2-4.8,3.1c-0.4,1.1-0.2,2.4,0.1,3.6c1.1,5.2,3.3,10.5,3.8,15.7
					c0.6,3,2.4,18.7,7.8,16.9c1.6-2.6,1.8-5.8,3.1-8.6C804.5,280.8,806.2,279.1,808.4,277.7z"/>
			</g>
			<polygon class="st8" points="809.8,320.8 793.9,325.6 735.8,386.5 732.4,406.5 760.1,452.4 767.6,435.6 755.9,401.7 774.5,388.5 
				799.4,332.5 			"/>
		</g>
		<g>
			<path class="st0" d="M882.1,303.7c-1.1-0.5-2.1-1-3.2-1.6c10.8-15.7,16.6-34.9,16.6-55.3c0-49.1-34.7-89.1-77.3-89.1
				c-42.6,0-77.3,40-77.3,89.1c0,20.4,5.8,39.6,16.6,55.3c-1.7,0.8-2.8,1.3-3.3,1.6c-45.3,20.8-74.5,66.2-74.5,115.8v30.9
				c0,13.3,10.8,24.1,24.1,24.1h228.6c13.3,0,24.1-10.8,24.1-24.1v-30.9C956.6,370,927.4,324.5,882.1,303.7z"/>
			<g>
				<path class="st9" d="M878.4,311.3c-0.4,0.5-0.8,1-1.2,1.5c-15.6,18.3-36.6,28.4-59,28.4c-22.4,0-43.4-10.1-59-28.4
					c-0.4-0.5-0.8-1-1.2-1.5c-41.1,18.8-69.8,60.3-69.8,108.3v30.9c0,8.7,7.1,15.8,15.8,15.8h228.6c8.7,0,15.8-7.1,15.8-15.8v-30.9
					C948.3,371.6,919.5,330.1,878.4,311.3z"/>
				<path class="st9" d="M818.2,327.7c18.1,0,34.6-8.2,46.9-21.6c13.6-14.8,22-35.8,22-59.2c0-44.6-30.9-80.8-68.9-80.8
					c-38.1,0-68.9,36.2-68.9,80.8c0,23.4,8.5,44.4,22,59.2C783.6,319.5,800.1,327.7,818.2,327.7z"/>
			</g>
		</g>
		<polygon class="st6" points="693,364.2 701.5,359.3 709.3,373.4 701.1,387.9 688.1,381.9 		"/>
		<polygon class="st6" points="943.4,357.6 934.9,352.7 927.1,366.8 935.3,381.3 948.3,375.3 		"/>
	</g>
	<g>
		<g>
			<g>
				<g>
					<polygon class="st10" points="307.6,519.1 247.7,497.2 260.1,601.9 252.9,692.3 252.7,692.9 252.9,693 252.9,693.1 
						264.7,694.3 264.7,694.3 265.1,694.3 291.4,613.8 305.4,528 305.4,528 					"/>
					<polygon class="st11" points="264,698.4 251.8,698.1 248.7,708.4 249,708.5 248.9,708.5 269.1,720.5 278.8,721.6 280,710.6 
						277.4,708.7 					"/>
				</g>
				<g>
					<polygon class="st10" points="348.3,520.9 330.3,700.4 318.5,700.9 306.6,604 286,507.5 					"/>
					<polygon class="st11" points="330.3,704.5 346,713.4 344.5,720.8 316.5,716.6 318.2,705.9 					"/>
				</g>
				<g>
					<g>
						<path class="st12" d="M376.3,566c3.8-2.6,3.9-7.2,3.9-11.8c0-8.6-1.6-17.4-3.5-25.8c-3.8-15.7-8-34.6-9.9-54.9
							c-4.8-52.5-21.4-87.8-21.4-87.8l-5.4-14.3c-1.1-1.9-2.2-3.7-3.3-5.5c-6.7-10.5-18.3-28.3-30.7-31.2c-0.3-0.1-0.5-0.1-0.8-0.2
							c-13.1-2.9-29.8-1.5-41.6,4.8c-2.2,1.2-4.2,2.8-6.2,4.4c-5.8,4.7-10.5,7.2-13,14.3c-2.2,6.2-2.7,12.9-3.9,19.3
							c-2.4,13-3.9,26.1-5.8,39.1c-3.6,24.5-6.7,49-10.6,73.4c-2,12.6-4,25.2-4.9,37.9c-0.8,11.2-11,22.6-16.7,32.7
							c-2,3.5,26.5,12.6,29,13.2c11.8,2.7,24.3,2,36.5,2.1c26.7,0.1,53.3-0.7,79.9-2.5c8.8-0.6,19.7-2.3,27.6-6.7
							C375.9,566.3,376.1,566.2,376.3,566z"/>
					</g>
					<path class="st12" d="M290.5,333.1c0,0-15-4.1-17.1,29.8s-5.5,119.6-10.4,143.1c-4.8,23.5-12.1,69.6-12.1,69.6l46,1.6l52.5-4.1
						c0,0-18-33.2-20.7-56.7c-2.8-23.5,2.1-112-9.7-145.2C307.3,338,304.9,333.7,290.5,333.1z"/>
					<g>
						<polygon class="st13" points="358.5,408.6 361.9,412.7 374.4,395.4 324.6,340.1 305.9,334.6 314.9,358.8 						"/>
					</g>
					<polygon class="st14" points="316.9,394.2 306,385.9 309.3,381.1 318.1,385.1 318.6,382.1 327.1,390.4 324.3,395.9 					"/>
					<g>
						<polygon class="st13" points="359.7,392.1 359.2,393.2 325.1,386.6 320.1,397.8 361.9,412.7 						"/>
					</g>
				</g>
				<g>
					<g>
						<path class="st15" d="M311.5,306.3c2.3,6.8-1,14.1-3.9,20.3c-2.6,5.5-3.4,9.1,3,10.6c3.7,0.8,10.2,2.4,13.4-0.4
							c2.4-2.1,1.1-8.7-0.1-11.3c-0.9-2-3.3-3-4.1-5c-0.4-0.8-0.4-1.8-0.4-2.7c-0.1-3.7,0.5-7.4,1.5-10.9c0.7-2.4,1.7-4.7,1.9-7.2
							c0.3-3.6-2.2-7.8-3.6-11.1c-2.5-6.2-11.2-14.4-18.4-9.6c-1.7,1.1-2.6,3-3.4,4.8c-0.5,1.1-0.9,2.2-1,3.4
							c-0.1,4.7,4.3,5.5,7.3,7.8C307.2,297.8,310,301.9,311.5,306.3z"/>
						<path class="st16" d="M297.6,332.9c6.3-1.5,11.2-6.8,13.6-12.8c2.4-6,2.5-12.7,1.8-19.2c-2.2-21.4-28.9-20.1-37.9-3.6
							C267.3,311.6,279.3,337.2,297.6,332.9z"/>
					</g>
					<path class="st16" d="M297.6,330.6c-0.1,2.4-0.2,4.9-0.3,7.3c0,0.4,0,0.8-0.3,1c-0.3,0.3-0.7,0.3-1.2,0.3c-2-0.1-4-0.1-6-0.2
						c-1,0-2-0.1-2.9-0.5c-1.9-1-2.3-3.6-2-5.7c0.3-2.1,1.1-4.3,0.6-6.4c4.1,2,8-2.6,12.1-0.5L297.6,330.6z"/>
				</g>
				<path class="st15" d="M289,263.7c-7,2.4-11.5,9.5-18.3,12.3c-3.9,1.6-8.6,1.8-11.8,4.6c-7.2,6.2-1.4,19.4-7.3,26.8
					c-1.2,1.6-2.9,2.7-4.1,4.3c-2.7,3.3-3,7.9-3.2,12.2c-0.1,1-0.1,2,0.1,3c0.9,9.8,15.2,9.2,20.9,8.6c6.2-0.7,4.1-4.1,4.1-4.1
					l-0.2-0.3c-0.6-4,1-8.2,4.2-10.8c1.2-0.9,2.5-1.7,3.4-2.9c1.8-2.8,0.1-6.5,0.4-9.9c1.1-13.5,23.7-10.6,30.1-20.2
					C315.1,275.4,302.3,259.2,289,263.7z"/>
			</g>
		</g>
		<g>
			<path class="st0" d="M356.9,303.7c-1.1-0.5-2.1-1-3.2-1.6c10.8-15.7,16.6-34.9,16.6-55.3c0-49.1-34.7-89.1-77.3-89.1
				c-42.6,0-77.3,40-77.3,89.1c0,20.4,5.8,39.6,16.6,55.3c-1.7,0.8-2.8,1.3-3.3,1.6c-45.3,20.8-74.5,66.2-74.5,115.8v30.9
				c0,13.3,10.8,24.1,24.1,24.1h228.6c13.3,0,24.1-10.8,24.1-24.1v-30.9C431.5,370,402.2,324.5,356.9,303.7z"/>
			<g>
				<path class="st9" d="M353.3,311.3c-0.4,0.5-0.8,1-1.2,1.5c-15.6,18.3-36.6,28.4-59,28.4c-22.4,0-43.4-10.1-59-28.4
					c-0.4-0.5-0.8-1-1.2-1.5c-41.1,18.8-69.8,60.3-69.8,108.3v30.9c0,8.7,7.1,15.8,15.8,15.8h228.6c8.7,0,15.8-7.1,15.8-15.8v-30.9
					C423.2,371.6,394.4,330.1,353.3,311.3z"/>
				<path class="st9" d="M293.1,327.7c18.1,0,34.6-8.2,46.9-21.6c13.6-14.8,22-35.8,22-59.2c0-44.6-30.9-80.8-68.9-80.8
					c-38.1,0-68.9,36.2-68.9,80.8c0,23.4,8.5,44.4,22,59.2C258.5,319.5,275,327.7,293.1,327.7z"/>
			</g>
		</g>
		<polygon class="st14" points="167.9,364.2 176.4,359.3 184.2,373.4 176,387.9 163,381.9 		"/>
		<polygon class="st14" points="418.3,357.6 409.8,352.7 402,366.8 410.2,381.3 423.2,375.3 		"/>
	</g>
	<g>
		<polygon class="st17" points="615,700.7 616.1,709.5 599.8,720.4 589.9,712.8 597.5,703 613.9,692 		"/>
		<g>
			<polygon class="st18" points="615.5,697.8 602.9,586.4 618.1,461.7 614.7,435.2 546.9,432.6 544.5,475.8 555.9,586.6 
				598.7,703.5 			"/>
		</g>
		<polygon class="st19" points="540.6,309.4 506.5,318.7 467.1,388.5 485.8,405.8 512,374.7 		"/>
		<g>
			<polygon class="st18" points="497.2,445.1 497.1,557.5 519.7,702.2 536,702 544.9,568.2 565.9,434.3 			"/>
			<polygon class="st17" points="535.9,708.9 518.4,717.9 509.5,709.2 518.2,700.3 535.9,700.1 			"/>
		</g>
		<g>
			<path class="st19" d="M625.1,483.3c-0.2-4.9-0.4-8.9-0.5-10.4c-0.3-13.1-1.5-26.1-3.1-39.1c-1.5-11.6-3.3-40.5-5.3-52
				c-1.6-9.5-7.4-33.4-11.5-42.2c-10.3-22-7.1-24-52.3-30.6c-19.8-2.9-24.5,9.5-40.7,23.7c-1.6,1.4-1.5,9.7-1.9,11.9
				c-0.7,3.9-1.4,7.8-2.2,11.6c-0.6,3-1.3,6.1-2.1,9.1c-8.1,31.1-17.3,61-19.2,93.3c-0.5,9.1-3.3,17.9-3.1,27.1c0,1.1,0.1,2.2,0.8,3
				c2.7,3.4,17.8-1.8,22.4-2.3c11.7-1.1,23.6-1.9,35.3-1.8c12,0.1,24.1,1.3,35.9,3.3c7.9,1.3,16,3.2,23.1,6.9
				c6.8,3.5,11.6,8.7,18.5,12.4c0.6,0.3,1.4,0.7,2.1,0.6C625.2,507.4,625.4,493.6,625.1,483.3z"/>
		</g>
		<g>
			<path class="st16" d="M552.3,315.3c2.3,1.1,7.7,1.5,13.3-0.7c1.1-0.4,1.9-1.5,1.9-2.7c0-3.4-0.3-6.8-0.8-10.2
				c4.2-1.5,9.1-3.7,9.8-8.1c0.2-1.4,0-2.8-0.2-4.2c-1-5.7-2-11.5-3-17.2c-0.3-2-0.7-4-1.8-5.7c-1.9-3-5.6-4.3-9-4.9
				c-8.9-1.5-18.5,0.4-25.4,6.2c-1.8,1.5-3.5,3.4-4.3,5.7c-1.2,3.5-0.3,7.3,0.6,10.9c0.9,3.3,1.7,6.6,2.6,9.9c1,3.8,2.4,8.1,6.1,9.5
				c1.9,0.8,4.2,0.5,6,1.7C551.1,307.4,550.7,312,552.3,315.3z"/>
			<path class="st15" d="M503.4,257.9c-1.5-14.2,4.7-29.2,16.4-26.2c7.1,1.8,13.4,4.8,20.6,2.1c6.7-2.5,11.5-1.5,18.5,1
				c7.6,2.7,17.8,3.3,24.6,7.2c2.9,1.6,5.2,4.1,6.9,6.8c6.2,9.5,6.2,22.7,0.1,32.2c-1.4,2.1-3,4.1-4.7,6c-3.6,3.9-7.9,8.7-12.8,10.1
				c-0.1-4.4,3.9-18.3,0.5-21.9c-5.4-5.7-17.5-3.7-24.1-2.3c-7.3,1.5-13.7,6.7-20.9,7.8C512.6,283.2,504.8,270.9,503.4,257.9z"/>
		</g>
	</g>
	<g>
		<path class="st0" d="M635,227.6c-1.2-0.6-2.5-1.2-3.8-1.8c12.6-18.3,19.4-40.8,19.4-64.6c0-57.5-40.5-104.2-90.3-104.2
			S470,103.7,470,161.2c0,23.8,6.8,46.3,19.4,64.6c-2,0.9-3.3,1.6-3.8,1.9c-52.9,24.3-87.1,77.4-87.1,135.4v36.1
			c0,15.5,12.6,28.2,28.2,28.2H694c15.5,0,28.2-12.6,28.2-28.2V363C722.2,305.1,688,251.9,635,227.6z"/>
		<g>
			<path class="st10" d="M630.7,236.4c-0.5,0.6-1,1.2-1.5,1.8c-18.3,21.4-42.8,33.2-69,33.2c-26.2,0-50.7-11.8-69-33.2
				c-0.5-0.6-1-1.2-1.5-1.8c-48.1,22-81.7,70.5-81.7,126.6v36.1c0,10.2,8.3,18.4,18.4,18.4H694c10.2,0,18.4-8.3,18.4-18.4V363
				C712.4,307,678.8,258.4,630.7,236.4z"/>
			<path class="st10" d="M560.3,255.7c21.2,0,40.4-9.6,54.8-25.2c15.8-17.2,25.8-41.9,25.8-69.2c0-52.2-36.1-94.4-80.6-94.4
				c-44.5,0-80.6,42.3-80.6,94.4c0,27.3,9.9,52,25.8,69.2C519.9,246.1,539.1,255.7,560.3,255.7z"/>
		</g>
	</g>
	<polygon class="st14" points="469.2,426.9 465.5,417.8 480.5,412 493.8,421.9 486.1,434 	"/>
	<polygon class="st14" points="636.6,426.9 640.3,417.8 625.3,411.9 612,422 619.7,434 	"/>
</g>
</svg>
