<?xml version="1.0" encoding="utf-8"?>
<!-- Generator: Adobe Illustrator 26.4.1, SVG Export Plug-In . SVG Version: 6.00 Build 0)  -->
<svg version="1.1" id="Capa_1" xmlns="http://www.w3.org/2000/svg" xmlns:xlink="http://www.w3.org/1999/xlink" x="0px" y="0px"
	 viewBox="0 0 1100 800" style="enable-background:new 0 0 1100 800;" xml:space="preserve">
<style type="text/css">
	.st0{fill:url(#SVGID_1_);}
	.st1{fill:url(#SVGID_00000124874973574467303230000007745008509166854021_);}
	.st2{fill:url(#SVGID_00000085251003288272054140000004572755868609296809_);}
	.st3{fill:url(#SVGID_00000058572431881458785830000008419452983224340652_);}
	.st4{fill:#231F20;}
	.st5{fill:#FFFFFF;}
</style>
<g>
	<linearGradient id="SVGID_1_" gradientUnits="userSpaceOnUse" x1="495.45" y1="125.2522" x2="762.5498" y2="125.2522">
		<stop  offset="0" style="stop-color:#F2391A"/>
		<stop  offset="1" style="stop-color:#FF9A03"/>
	</linearGradient>
	<path class="st0" d="M535.7,198.2l1.4-11.3c6.3-51.3,54.9-94.7,106.2-94.7c23.9,0,45.2,9.2,60,25.9c15,16.9,21.6,39.6,18.6,63.9
		l-2,16.1h40.2l1.4-11.3c4.4-35.8-5.7-69.6-28.4-95.2c-22.5-25.4-54.4-39.4-89.9-39.4c-71.6,0-137.1,58.2-145.8,129.8l-2,16.1H535.7
		z"/>
	<g>
		
			<linearGradient id="SVGID_00000014629419957955119170000011732532303720516283_" gradientUnits="userSpaceOnUse" x1="102.3947" y1="457.5817" x2="257.3101" y2="457.5817">
			<stop  offset="0" style="stop-color:#F2391A"/>
			<stop  offset="1" style="stop-color:#FF9A03"/>
		</linearGradient>
		<path style="fill:url(#SVGID_00000014629419957955119170000011732532303720516283_);" d="M227.3,483.9c16.5,0,30-11.9,30-26.4
			s-13.5-26.4-30-26.4h-5.2h-89.8c-16.5,0-30,11.9-30,26.4s13.5,26.4,30,26.4h89.8H227.3z"/>
		
			<linearGradient id="SVGID_00000166654335575903111060000008590225948861886086_" gradientUnits="userSpaceOnUse" x1="217.6521" y1="246.754" x2="296.9661" y2="246.754">
			<stop  offset="0" style="stop-color:#F2391A"/>
			<stop  offset="1" style="stop-color:#FF9A03"/>
		</linearGradient>
		<path style="fill:url(#SVGID_00000166654335575903111060000008590225948861886086_);" d="M247.6,273.1H267c16.5,0,30-11.9,30-26.4
			c0-14.5-13.5-26.4-30-26.4h-19.4c-16.5,0-30,11.9-30,26.4C217.7,261.2,231.1,273.1,247.6,273.1z"/>
		
			<linearGradient id="SVGID_00000002343433044321366180000010782812758605705126_" gradientUnits="userSpaceOnUse" x1="186.7241" y1="457.5822" x2="845.2777" y2="457.5822">
			<stop  offset="0" style="stop-color:#F2391A"/>
			<stop  offset="1" style="stop-color:#FF9A03"/>
		</linearGradient>
		<path style="fill:url(#SVGID_00000002343433044321366180000010782812758605705126_);" d="M813.5,220.4H494h-57.4h-90.7
			c-16.5,0-30,11.9-30,26.4c0,14.5,13.5,26.4,30,26.4h-0.5c16.5,0,30,11.9,30,26.4s-13.5,26.4-30,26.4h-83.6
			c-16.5,0-30,11.9-30,26.4c0,14.5,13.5,26.4,30,26.4h106.9h3.3l-0.1,0.3c14.9,1.5,26.7,12.5,26.7,26.1c0,14.5-13.5,26.4-30,26.4
			h-7.1h-50c-16.5,0-30,11.9-30,26.4s13.5,26.4,30,26.4h3.6c16.5,0,30,11.9,30,26.4s-13.5,26.4-30,26.4h-93h-5.5
			c-16.5,0-30,11.9-30,26.4s13.5,26.4,30,26.4h5.5h108.1H427c16.5,0,30,11.9,30,26.4s-13.5,26.4-30,26.4H319.8l-0.5,2.6
			c-10.1,4.2-17.2,13.3-17.2,23.7c0,14.5,13.5,26.4,30,26.4h10.6h130.9H791c18.3,0,34-15,34.9-33.3l19.4-407.9
			C846.1,235.4,831.8,220.4,813.5,220.4z M437.5,536.6h-32.2c-16.5,0-30-11.9-30-26.4s13.5-26.4,30-26.4h32.2
			c16.5,0,30,11.9,30,26.4S454,536.6,437.5,536.6z M503.5,318.6c-12.9,0-23.3-10.4-23.3-23.3c0-10.9,7.5-20,17.6-22.5
			c1.2-0.1,2.4-0.3,3.5-0.6c0.7-0.1,1.4-0.2,2.1-0.2c12.9,0,23.3,10.4,23.3,23.3S516.3,318.6,503.5,318.6z M727.9,318.6
			c-12.9,0-23.3-10.4-23.3-23.3s10.4-23.3,23.3-23.3c12.9,0,23.3,10.4,23.3,23.3S740.8,318.6,727.9,318.6z"/>
	</g>
</g>
<g>
	<circle class="st4" cx="441.4" cy="694.8" r="66"/>
	<path class="st4" d="M775.7,694.8c0,36.5-29.6,66-66.1,66c-36.5,0-66-29.6-66-66c0-36.5,29.6-66,66-66
		C746.1,628.7,775.7,658.3,775.7,694.8z"/>
	<path class="st5" d="M732.1,694.8c0,12.4-10.1,22.5-22.5,22.5c-12.4,0-22.5-10.1-22.5-22.5c0-12.4,10.1-22.5,22.5-22.5
		C722.1,672.3,732.1,682.3,732.1,694.8z"/>
	<circle class="st5" cx="441.4" cy="694.8" r="22.5"/>
</g>
</svg>
